<?xml version="1.0" encoding="UTF-8" standalone="no"?>
<svg xmlns="http://www.w3.org/2000/svg" xmlns:xlink="http://www.w3.org/1999/xlink" version="1.1"
    width="1080" height="1080" viewBox="0 0 1080 1080" xml:space="preserve">
<desc>Created with Fabric.js 5.2.4</desc>
<defs>
</defs>
<rect x="0" y="0" width="100%" height="100%" fill="transparent"></rect>
<g transform="matrix(1 0 0 1 540 540)" id="378e766c-518b-4022-9432-75fa6a0a391d"  >
</g>
<g transform="matrix(1 0 0 1 540 540)" id="549b36eb-172a-43ca-9fde-b6a10e3fb9f9"  >
<rect style="stroke: none; stroke-width: 1; stroke-dasharray: none; stroke-linecap: butt; stroke-dashoffset: 0; stroke-linejoin: miter; stroke-miterlimit: 4; fill: rgb(255,255,255); fill-rule: nonzero; opacity: 1; visibility: hidden;" vector-effect="non-scaling-stroke"  x="-540" y="-540" rx="0" ry="0" width="1080" height="1080" />
</g>
<g transform="matrix(1.05 0 0 1.05 538.88 538.88)" id="container"  >
</g>
<g transform="matrix(1.05 0 0 1.05 537.6 538.2)" id="icon_container"  >
</g>
<g transform="matrix(15.18 0 0 15.18 540 540)"  >
<path style="stroke: rgb(0,0,0); stroke-width: 0; stroke-dasharray: none; stroke-linecap: butt; stroke-dashoffset: 0; stroke-linejoin: miter; stroke-miterlimit: 2; fill: rgb(0,0,0); fill-rule: nonzero; opacity: 1;" vector-effect="non-scaling-stroke"  transform=" translate(-377.2, 25.2)" d="M 398.69337 -50.4 L 389.90937 -50.4 L 380.04537000000005 -39.096 L 354.62937000000005 -8.927999999999997 L 354.62937000000005 0 L 363.05338000000006 0 L 373.2773700000001 -11.304 L 398.6933700000001 -41.472 z M 376.01337 -50.4 L 355.27737 -50.4 L 355.27737 -39.096 L 365.78937 -39.096 z M 387.17338 -11.304 L 377.23737 0 L 399.77337 0 L 399.77337 -11.304 z" stroke-linecap="round" />
</g>
<g transform="matrix(1.05 0 0 1.05 537.6 538.2)" id="icon"  >
</g>
</svg>